HIERARCHY
ROOT SpineBase
{
  OFFSET 0.000000 0.000000 0.000000
  CHANNELS 6 Xposition Yposition Zposition Zrotation Xrotation Yrotation
  JOINT SpineMid
  {
    OFFSET 0.000000 31.888392 0.000000
    CHANNELS 3 Zrotation Xrotation Yrotation
    JOINT SpineShoulder
    {
      OFFSET 0.422117 23.749413 -0.766732
      CHANNELS 3 Zrotation Xrotation Yrotation
      JOINT Neck
      {
        OFFSET 0.262031 7.880110 -0.570842
        CHANNELS 3 Zrotation Xrotation Yrotation
        JOINT Head
        {
          OFFSET 4.770062 12.982162 3.383557
          CHANNELS 3 Zrotation Xrotation Yrotation
          End Site
          {
            OFFSET 0 0 0
          }
        }
      }
      JOINT ShoulderLeft
      {
        OFFSET -7.291571 -1.861218 -14.000335
        CHANNELS 3 Zrotation Xrotation Yrotation
        JOINT ElbowLeft
        {
          OFFSET -6.011787 -26.474739 -7.346674
          CHANNELS 3 Zrotation Xrotation Yrotation
          JOINT WristLeft
          {
            OFFSET 0.645172 -19.925908 -3.061006
            CHANNELS 3 Zrotation Xrotation Yrotation
            JOINT HandLeft
            {
              OFFSET -0.027057 -8.195834 1.141300
              CHANNELS 3 Zrotation Xrotation Yrotation
              JOINT HandTipLeft
              {
                OFFSET -0.445591 -8.055559 -0.624545
                CHANNELS 3 Zrotation Xrotation Yrotation
                End Site
                {
                  OFFSET 0 0 0
                }
              }
              JOINT ThumbLeft
              {
                OFFSET -4.142809 2.081274 -5.447073
                CHANNELS 3 Zrotation Xrotation Yrotation
                End Site
                {
                  OFFSET 0 0 0
                }
              }
            }
          }
        }
      }
      JOINT ShoulderRight
      {
        OFFSET 7.146700 -4.393139 14.513550
        CHANNELS 3 Zrotation Xrotation Yrotation
        JOINT ElbowRight
        {
          OFFSET 1.153615 -22.889430 -3.408095
          CHANNELS 3 Zrotation Xrotation Yrotation
          JOINT WristRight
          {
            OFFSET 2.127100 -24.780036 11.325534
            CHANNELS 3 Zrotation Xrotation Yrotation
            JOINT HandRight
            {
              OFFSET 0.952407 -5.284735 0.684989
              CHANNELS 3 Zrotation Xrotation Yrotation
              JOINT HandTipRight
              {
                OFFSET 2.548081 -5.905300 -1.784593
                CHANNELS 3 Zrotation Xrotation Yrotation
                End Site
                {
                  OFFSET 0 0 0
                }
              }
              JOINT ThumbRight
              {
                OFFSET 2.635994 2.191145 0.701194
                CHANNELS 3 Zrotation Xrotation Yrotation
                End Site
                {
                  OFFSET 0 0 0
                }
              }
            }
          }
        }
      }
    }
  }
  JOINT HipLeft
  {
    OFFSET -1.984269 1.415532 -8.721543
    CHANNELS 3 Zrotation Xrotation Yrotation
    JOINT KneeLeft
    {
      OFFSET -9.800888 -33.780249 -3.032409
      CHANNELS 3 Zrotation Xrotation Yrotation
      JOINT AnkleLeft
      {
        OFFSET -8.331026 -37.648018 7.710732
        CHANNELS 3 Zrotation Xrotation Yrotation
        JOINT FootLeft
        {
          OFFSET 3.405970 -6.036413 -3.566085
          CHANNELS 3 Zrotation Xrotation Yrotation
          End Site
          {
            OFFSET 0 0 0
          }
        }
      }
    }
  }
  JOINT HipRight
  {
    OFFSET 4.320760 0.423935 2.496711
    CHANNELS 3 Zrotation Xrotation Yrotation
    JOINT KneeRight
    {
      OFFSET 1.495420 -39.473271 4.092909
      CHANNELS 3 Zrotation Xrotation Yrotation
      JOINT AnkleRight
      {
        OFFSET -1.634301 -33.069390 5.551668
        CHANNELS 3 Zrotation Xrotation Yrotation
        JOINT FootRight
        {
          OFFSET 4.519515 -6.245378 -1.529115
          CHANNELS 3 Zrotation Xrotation Yrotation
          End Site
          {
            OFFSET 0 0 0
          }
        }
      }
    }
  }
}
MOTION
Frames: 6
Frame Time: 0.033333
-109.647665 81.073575 303.220810 -0.000000 0.000000 -60.662578 -0.000000 0.000000 60.662578 -0.000000 0.000000 0.000000 -0.000000 0.000000 0.000000 0.000000 0.000000 0.000000 -0.000000 0.000000 0.000000 -0.000000 0.000000 0.000000 -0.000000 0.000000 0.000000 -0.000000 0.000000 0.000000 0.000000 0.000000 0.000000 0.000000 0.000000 0.000000 -0.000000 0.000000 0.000000 -0.000000 0.000000 0.000000 -0.000000 0.000000 0.000000 -0.000000 0.000000 0.000000 0.000000 0.000000 0.000000 0.000000 0.000000 0.000000 -0.000000 0.000000 60.662578 -0.000000 0.000000 0.000000 -0.000000 0.000000 0.000000 0.000000 0.000000 0.000000 -0.000000 0.000000 60.662578 -0.000000 0.000000 0.000000 -0.000000 0.000000 0.000000 0.000000 0.000000 0.000000
-109.070346 81.045469 303.386220 0.228983 -0.386453 -60.538296 -0.449101 -0.009301 60.539032 -0.000000 0.000000 0.000000 -0.000000 0.000000 0.000000 0.000000 0.000000 0.000000 0.916195 0.575963 -0.389804 1.466541 -0.264171 0.042486 -0.528871 1.928041 0.575889 1.679770 -3.906134 -0.282963 0.000000 0.000000 0.000000 0.000000 0.000000 0.000000 -0.587522 0.722560 0.127514 0.565137 1.102710 0.026562 -1.819354 -8.249484 -1.696471 -0.045834 2.309247 0.168223 0.000000 0.000000 0.000000 0.000000 0.000000 0.000000 -0.449101 -0.009301 60.539032 -0.000000 0.000000 0.000000 -0.000000 0.000000 0.000000 0.000000 0.000000 0.000000 -0.449101 -0.009301 60.539032 -0.000000 0.000000 0.000000 4.310840 4.826138 2.174881 0.000000 0.000000 0.000000
-108.566504 81.017336 303.533289 0.430303 -0.729638 -60.406218 -0.846954 -0.013856 60.408855 -0.000000 0.000000 0.000000 -0.000000 0.000000 0.000000 0.000000 0.000000 0.000000 1.746714 1.088367 -0.749096 2.572467 -0.503983 0.132724 -0.532714 3.596481 1.042927 2.963142 -7.292612 -0.336935 0.000000 0.000000 0.000000 0.000000 0.000000 0.000000 -1.116663 1.346383 0.246940 1.041805 1.902327 0.024683 -3.183443 -13.982989 -3.066320 -0.351333 2.841809 -0.035505 0.000000 0.000000 0.000000 0.000000 0.000000 0.000000 -0.846954 -0.013856 60.408855 -0.000000 0.000000 0.000000 -0.000000 0.000000 0.000000 0.000000 0.000000 0.000000 -1.801774 -0.660309 60.315347 1.034451 -0.509394 0.092489 7.282745 8.431696 3.560195 0.000000 0.000000 0.000000
-108.136140 80.989177 303.662017 0.604032 -1.029661 -60.266959 -0.118177 0.143747 60.307867 -0.086169 0.077253 0.031580 0.157573 0.442307 -0.141978 0.000000 0.000000 0.000000 1.912794 2.315994 -1.174602 3.403049 -0.713802 0.249383 -0.152525 4.893777 1.425947 3.873748 -10.021022 -0.269143 0.000000 0.000000 0.000000 0.000000 0.000000 0.000000 -2.160539 2.641468 0.311133 1.421775 2.408947 -0.006717 -4.183086 -17.953616 -4.121322 -0.556069 2.644735 -0.430344 0.000000 0.000000 0.000000 0.000000 0.000000 0.000000 -2.014668 -0.762602 60.262485 0.138265 -0.085807 -0.240603 0.920131 -0.251873 0.246543 0.000000 0.000000 0.000000 -2.556625 -0.921723 60.136917 1.465909 -0.730005 0.133536 9.108798 10.836524 4.406048 0.000000 0.000000 0.000000
-107.779253 80.960992 303.772405 0.750235 -1.286633 -60.121119 -0.134934 0.174920 60.173644 -0.092994 0.084703 0.041020 0.264616 0.509146 -0.176609 0.000000 0.000000 0.000000 2.421327 2.927446 -1.506257 4.019651 -0.890065 0.377402 0.486668 5.735500 1.752662 4.442608 -11.998874 -0.182189 0.000000 0.000000 0.000000 0.000000 0.000000 0.000000 -2.704313 3.257680 0.398088 1.697484 2.633048 -0.068934 -4.871646 -20.601880 -4.877830 -0.416021 2.424924 -0.881166 0.000000 0.000000 0.000000 0.000000 0.000000 0.000000 -2.565211 -0.910339 60.098572 0.187107 -0.177491 -0.277546 0.858315 -1.227223 -0.061815 0.000000 0.000000 0.000000 -3.208811 -1.134565 59.957313 1.834561 -0.925400 0.169751 9.929871 12.118677 4.872426 0.000000 0.000000 0.000000
-107.495844 80.932781 303.864452 0.868969 -1.500665 -59.969273 -0.140492 0.197586 60.031953 -0.088879 0.082959 0.049869 0.398447 0.536040 -0.204644 0.000000 0.000000 0.000000 2.866873 3.463220 -1.803614 4.466018 -1.030233 0.506158 1.277543 6.073660 2.051222 4.706687 -13.182750 -0.159745 0.000000 0.000000 0.000000 0.000000 0.000000 0.000000 -3.148109 3.728112 0.467587 1.862151 2.583637 -0.163421 -5.282044 -22.185333 -5.349683 0.223641 2.635021 -1.288647 0.000000 0.000000 0.000000 0.000000 0.000000 0.000000 -3.057286 -1.006696 59.920310 0.240437 -0.302415 -0.292667 0.964294 -1.481044 -0.113714 0.000000 0.000000 0.000000 -3.755120 -1.297601 59.777881 2.137190 -1.094102 0.200245 9.823138 12.339171 5.038337 0.000000 0.000000 0.000000
